. 
  
http://www.torrentday.com   -    Your Key To The Scene.

Now TvTeam with [No-RAR] Releases.

(((((((((((((= Enjoy No RAR releases =))))))))))))))))))))

...................................NFO:....................................

.
                                                     
                                                   
                                                         
                                                          
                                                           
                                                          
                                                          
                                                          
                                                           
                                                         
                                                          
                                                        
                                                      
                                     
                                                 
                                                   
                                             
                                              
                                                     
                                                      
                                                      
                                                      
                                                    
                                                     
                                                   
                                                     
                                                     
                                                      
                                                     
                                                      
                                                    
                 ARTiCHOKE                        
                                                
                      
                                                        
                                                      
                                                      
                                               
                                          
                                                   
                                            
                                                    
                                                       
                                                        
                                                      
                                                
                                                        
                                                 
                                              
                                                  
                                                
                                                  
                                        

      
                                
      SPRiNTER proudly presents...     
                                
      
 
 Meat.Weed.America.2007.DVDRip.XviD-SPRiNTER  http://www.imdb.com/title/tt1119623/
 Subtitles: N/A

 Date: 2010.04

 Director: Aiden Dillard
 Plot: When Meatweed Manor is attacked by the terrorist Bin Smokin', Lord Meatweed must rally the troops and some horny nuns against the evil Jihottie terrorists.
 Genre: Comedy

 Cast

	Zahra Divine	 ...	Jihottie Zahra
	Rev Douglas	 ...	Jihottie Reve
	Saraya Hope	 ...	Sister Saraya
	Lloyd Kaufman	 ...	Art Dealer
	Dennis Palozzolo	 ...	Lord Meatwood
	Debbie Rochon	 ...	Hempress
	Peter Stickles	 ...	Bin Smokin
	Carey Sveen	 ...	Jessie Bell
	Bella Vendetta	 ...	Jihottie Bella

      
                 
      Release notes     
                 
      

 Enjoy!


      
           
     Greetings    
           
      


NTX aAF FiCO HNR CiNEFiLE AEN HUMANiSM MOViERUSH


      
           
      Details     
           
      

Format                           : AVI
Format/Info                      : Audio Video Interleave
File size                        : 697 MiB
Duration                         : 1h 17mn
Overall bit rate                 : 1 265 Kbps
Writing application              : VirtualDubMod 1.5.10.2 (build 2540/release)
Writing library                  : VirtualDubMod build 2540/release

Video
ID                               : 0
Format                           : MPEG-4 Visual
Format profile                   : Advanced Simple@L5
Format settings, BVOP            : Yes
Format settings, QPel            : No
Format settings, GMC             : No warppoints
Format settings, Matrix          : Default (H.263)
Codec ID                         : XVID
Codec ID/Hint                    : XviD
Duration                         : 1h 17mn
Bit rate                         : 1 124 Kbps
Width                            : 544 pixels
Height                           : 400 pixels
Display aspect ratio             : 4:3
Frame rate                       : 23.976 fps
Resolution                       : 8 bits
Colorimetry                      : 4:2:0
Scan type                        : Progressive
Bits/(Pixel*Frame)               : 0.215
Stream size                      : 619 MiB (89%)
Writing library                  : XviD 1.1.2 (UTC 2006-11-01)

Audio
ID                               : 1
Format                           : MPEG Audio
Format version                   : Version 1
Format profile                   : Layer 3
Format_Settings_Mode             : Joint stereo
Format_Settings_ModeExtension    : MS Stereo
Codec ID                         : 55
Codec ID/Hint                    : MP3
Duration                         : 1h 17mn
Bit rate mode                    : Variable
Bit rate                         : 129 Kbps
Minimum bit rate                 : 128 Kbps
Channel(s)                       : 2 channels
Sampling rate                    : 48.0 KHz
Stream size                      : 71.0 MiB (10%)
Alignment                        : Aligned on interleaves
Interleave, duration             : 24 ms (0.58 video frame)
Interleave, preload duration     : 143 ms
Writing library                  : LAME3.95 
Encoding settings                : -m j -V 4 -q 3 -lowpass 18 --vbr-old -b 128